<?xml version="1.0" standalone="no"?>
<!DOCTYPE svg PUBLIC "-//W3C//DTD SVG 20010904//EN"
 "http://www.w3.org/TR/2001/REC-SVG-20010904/DTD/svg10.dtd">
<svg version="1.0" xmlns="http://www.w3.org/2000/svg"
 width="1180.000000pt" height="610.974884pt" viewBox="0 0 1180.000000 610.974884"
 preserveAspectRatio="xMidYMid meet">
<metadata>
Created by potrace 1.13, written by Peter Selinger 2001-2015
</metadata>
<g transform="translate(-58.000000,624.980903) scale(0.100000,-0.100000)"
fill="#000000" stroke="none">
<path d="M11326 6225 c-9 -13 -16 -30 -16 -37 0 -7 -13 -65 -29 -128 -40 -159
-65 -286 -58 -303 4 -12 15 -12 69 0 34 7 92 12 128 11 61 -1 65 0 68 21 l4
23 -109 -7 c-63 -4 -111 -12 -115 -18 -5 -7 -5 17 -2 53 3 36 10 70 14 76 5 5
17 45 26 88 10 43 23 83 29 90 6 6 12 18 13 26 0 8 4 41 8 73 7 62 -3 74 -30
32z"/>
<path d="M11660 6208 c-63 -67 -62 -127 1 -224 41 -63 57 -119 41 -142 -15
-22 -92 -35 -119 -21 -27 14 -29 36 -7 67 14 21 14 22 -8 22 -54 0 -64 -55
-19 -101 34 -33 88 -39 145 -15 64 27 64 88 1 197 -59 102 -63 121 -34 164 31
45 50 51 72 24 14 -17 18 -37 16 -81 -2 -54 11 -91 27 -75 13 13 16 96 5 130
-25 75 -79 99 -121 55z"/>
<path d="M1733 6175 c-22 -16 -53 -68 -53 -91 0 -7 25 -50 56 -96 75 -112 83
-128 90 -192 7 -60 -2 -69 -46 -46 -31 17 -130 39 -145 33 -20 -7 -9 -23 16
-23 11 0 48 -11 82 -25 87 -34 108 -35 123 -5 26 52 -15 167 -98 279 -53 70
-55 106 -9 138 25 17 38 20 52 13 23 -13 34 -71 20 -110 -10 -29 -9 -31 12
-28 19 3 22 10 25 56 4 69 -24 112 -71 112 -18 0 -42 -7 -54 -15z"/>
<path d="M11950 6150 c-14 -11 -30 -20 -36 -20 -15 0 -30 -60 -50 -205 -9 -66
-21 -126 -27 -132 -6 -9 -2 -18 14 -32 21 -17 25 -17 35 -4 9 14 19 14 75 3
104 -20 148 -23 164 -10 33 28 3 137 -53 194 l-31 33 19 51 c27 70 25 96 -6
121 -33 26 -72 26 -104 1z m79 -19 c8 -5 14 -23 13 -39 -1 -33 -42 -121 -66
-141 -15 -13 -23 -51 -10 -51 3 0 18 7 34 16 15 10 35 14 43 11 31 -12 79
-139 58 -152 -5 -3 -31 -1 -58 4 -26 6 -69 13 -95 16 l-48 6 0 54 c0 29 4 75
10 102 5 26 12 66 16 87 3 24 17 50 34 68 30 29 46 34 69 19z"/>
<path d="M1334 6141 c3 -5 0 -11 -8 -14 -9 -4 -15 -37 -19 -114 -4 -59 -10
-145 -13 -190 -5 -61 -3 -87 6 -98 19 -23 30 -1 30 61 0 28 3 92 6 142 l7 92
33 -21 c37 -23 63 -16 96 25 17 20 18 15 18 -121 0 -148 4 -173 25 -173 18 0
25 35 14 76 -10 34 -8 98 7 250 7 80 -5 104 -34 63 -9 -13 -32 -41 -51 -62
-32 -35 -35 -36 -52 -21 -10 9 -23 38 -30 65 -8 29 -18 49 -26 49 -8 0 -12 -4
-9 -9z"/>
<path d="M1977 6123 c-33 -5 -34 -8 -41 -98 -3 -38 -9 -106 -12 -151 -8 -101
1 -170 24 -179 9 -3 63 -9 119 -12 120 -7 146 3 163 66 10 39 0 123 -19 160
-12 22 -69 66 -98 75 -19 6 -21 11 -13 32 6 14 10 39 10 55 0 25 -6 33 -35 45
-34 14 -45 15 -98 7z m87 -29 c23 -9 19 -46 -9 -88 -14 -20 -25 -41 -25 -46 0
-6 18 -10 40 -10 59 0 95 -22 115 -72 22 -54 23 -131 2 -153 -12 -12 -40 -15
-117 -16 -56 -1 -103 1 -105 3 -11 11 -13 182 -4 258 13 99 21 117 51 123 13
2 26 5 30 6 3 0 13 -2 22 -5z"/>
<path d="M12340 5621 c-9 -3 -29 -18 -45 -33 -17 -14 -49 -41 -72 -60 -23 -18
-74 -61 -113 -96 -65 -57 -75 -63 -113 -61 -73 2 -1510 1 -1552 -2 -22 -1 -49
-2 -60 -1 -214 9 -4190 -1 -4202 -10 -7 -6 -19 -6 -32 1 -14 8 -22 8 -26 1 -4
-7 -11 -7 -18 -2 -10 8 -81 9 -97 2 -3 -1 -9 -1 -15 0 -15 3 -2830 -7 -3483
-13 -105 -1 -192 2 -192 6 0 5 -6 5 -12 1 -17 -11 -829 -7 -840 4 -9 9 103
122 121 122 6 0 11 13 11 29 l0 29 -40 -15 c-23 -9 -57 -31 -76 -50 -20 -18
-38 -33 -41 -33 -17 0 -93 -67 -93 -82 0 -10 -5 -18 -11 -18 -5 0 -7 6 -3 13
4 6 -1 5 -11 -5 -15 -14 -16 -20 -4 -47 7 -16 16 -26 19 -21 6 9 98 -67 172
-143 46 -46 76 -57 85 -30 6 16 -78 104 -91 96 -6 -3 -8 -3 -4 2 7 8 -35 70
-62 92 -17 14 -17 14 540 18 168 2 622 6 1010 9 838 8 4531 17 6155 16 633 0
1373 -1 1645 0 497 0 937 -1 1170 -4 l125 -1 100 -64 c55 -35 114 -76 131 -92
37 -35 59 -31 58 11 -1 37 -42 82 -100 110 -23 11 -49 29 -59 40 -10 11 -29
20 -42 20 -12 0 -23 4 -23 8 0 21 55 78 138 144 51 40 92 78 92 84 0 18 -23
32 -40 25z m-10947 -278 c-7 -2 -19 -2 -25 0 -7 3 -2 5 12 5 14 0 19 -2 13 -5z"/>
<path d="M1560 5540 c-9 -6 -10 -10 -3 -10 6 0 15 5 18 10 8 12 4 12 -15 0z"/>
<path d="M10847 4841 c1 -220 -1 -402 -5 -405 -14 -8 -299 73 -415 118 -88 34
-107 37 -114 19 -3 -8 0 -81 7 -161 17 -188 19 -252 8 -246 -5 3 -19 27 -33
53 -26 52 -50 69 -59 44 -10 -24 124 -213 151 -213 6 0 30 35 53 78 22 42 50
85 62 94 21 19 18 52 -4 42 -7 -3 -32 -32 -56 -65 -24 -32 -48 -59 -53 -59 -5
0 -9 24 -9 53 0 28 -7 102 -15 162 -19 138 -19 189 -2 183 54 -20 200 -68 237
-78 25 -7 90 -27 145 -46 l100 -33 3 -410 2 -411 65 0 65 0 1 113 c0 61 0 237
-1 391 l-1 278 35 -6 c58 -11 218 -70 218 -80 -1 -13 -103 -44 -130 -40 -26 4
-38 -12 -22 -31 8 -10 18 -11 33 -5 12 5 69 16 127 25 108 17 137 32 121 64
-4 9 -9 40 -10 69 -1 30 -6 63 -10 75 -5 12 -7 32 -5 45 3 17 -1 22 -16 22
-19 0 -20 -5 -14 -96 6 -79 4 -95 -7 -92 -37 10 -171 50 -229 69 -35 12 -70
28 -77 37 -9 13 -12 113 -13 428 l0 411 -67 2 -68 2 2 -400z"/>
<path d="M5835 5214 c-76 -39 -112 -116 -103 -215 6 -60 48 -125 99 -152 40
-21 117 -17 155 8 32 21 81 109 95 171 10 43 9 56 -5 85 -23 47 -51 79 -75 84
-10 2 -33 11 -50 19 -38 20 -78 20 -116 0z m122 -45 c6 -6 16 -8 21 -5 16 10
59 -48 65 -88 5 -29 0 -52 -18 -92 -14 -30 -29 -54 -35 -54 -8 0 -46 110 -66
193 -3 15 -11 27 -18 27 -11 0 -66 -63 -66 -75 0 -3 -12 -32 -27 -62 -25 -54
-27 -55 -35 -32 -13 34 -3 122 18 154 25 39 63 56 109 50 21 -3 45 -11 52 -16z
m-55 -114 c0 -8 1 -21 2 -27 1 -8 -8 -12 -19 -10 -27 5 -28 7 -13 31 15 25 27
27 30 6z m36 -122 c12 -55 7 -64 -36 -65 -48 -1 -82 26 -82 66 0 43 4 46 60
46 l47 0 11 -47z"/>
<path d="M610 4870 l0 -90 54 0 c69 0 102 13 111 41 6 17 2 27 -12 39 -17 13
-18 19 -7 35 8 13 9 28 3 43 -8 20 -15 22 -79 22 l-70 0 0 -90z m114 54 c9
-24 -2 -34 -40 -34 -30 0 -34 3 -34 25 0 22 4 25 34 25 22 0 36 -6 40 -16z
m11 -89 c0 -16 -8 -21 -42 -23 -40 -3 -43 -2 -43 23 0 25 3 26 43 23 34 -2 42
-7 42 -23z"/>
<path d="M820 4895 c0 -8 9 -15 20 -15 11 0 20 7 20 15 0 8 -9 15 -20 15 -11
0 -20 -7 -20 -15z"/>
<path d="M1893 4904 c-29 -13 -13 -45 32 -64 25 -11 45 -26 45 -34 0 -20 -35
-30 -59 -17 -28 15 -36 14 -21 -4 25 -30 100 -11 100 25 0 21 -11 30 -55 45
-16 6 -30 17 -30 25 0 20 42 25 62 8 14 -11 15 -11 11 2 -5 15 -61 24 -85 14z"/>
<path d="M3086 4894 c-20 -19 -21 -83 -3 -108 10 -14 22 -17 46 -14 30 4 32 3
29 -21 -3 -27 -21 -32 -63 -17 -20 8 -20 7 -1 -8 26 -21 59 -20 79 2 13 14 17
38 17 95 0 42 -4 79 -10 82 -5 3 -10 1 -10 -5 0 -8 -6 -8 -20 0 -26 14 -26 6
0 -20 35 -35 1 -118 -38 -94 -23 15 -28 77 -8 97 9 9 16 18 16 21 0 11 -19 6
-34 -10z"/>
<path d="M11390 4878 c-26 -43 -27 -130 -2 -178 26 -47 45 -50 21 -3 -26 51
-26 137 1 181 11 17 15 32 10 32 -6 0 -19 -15 -30 -32z"/>
<path d="M11609 4874 c26 -49 27 -116 1 -171 -22 -49 -15 -56 15 -15 28 39 32
136 7 181 -10 19 -24 37 -31 39 -7 2 -4 -12 8 -34z"/>
<path d="M4270 4798 c0 -59 4 -98 10 -98 6 0 10 15 10 34 0 34 0 34 39 29 33
-5 41 -2 51 17 15 27 7 99 -12 111 -7 5 -32 7 -55 6 l-43 -1 0 -98z m74 86
c20 -8 31 -66 17 -93 -7 -12 -20 -21 -31 -21 -37 0 -54 74 -24 104 18 18 17
18 38 10z"/>
<path d="M5474 4881 c-9 -9 -4 -181 6 -181 6 0 10 13 10 29 0 28 2 29 33 24
43 -7 67 16 67 63 0 60 -14 75 -66 72 -25 -2 -48 -5 -50 -7z m86 -20 c15 -29
12 -62 -7 -83 -20 -22 -27 -22 -47 -2 -32 31 -11 104 29 104 8 0 19 -9 25 -19z"/>
<path d="M6680 4870 c-14 -14 -19 -32 -18 -60 2 -49 19 -65 64 -62 37 3 46
-16 19 -38 -12 -10 -21 -10 -42 -1 -28 13 -46 6 -23 -9 23 -15 67 -12 84 6 12
11 16 36 16 94 0 73 -10 107 -24 78 -5 -10 -7 -10 -12 0 -9 18 -41 15 -64 -8z
m68 -12 c27 -27 6 -98 -28 -98 -22 0 -40 28 -40 62 0 28 17 48 40 48 9 0 21
-5 28 -12z"/>
<path d="M7882 4871 c-26 -16 -9 -53 28 -66 24 -8 35 -18 35 -31 0 -22 -41
-32 -58 -15 -14 14 -27 14 -27 1 0 -12 47 -25 75 -21 28 4 49 27 41 46 -3 9
-24 24 -46 32 -22 9 -40 22 -40 28 0 18 28 27 50 15 27 -14 34 -12 20 5 -14
16 -57 20 -78 6z"/>
<path d="M9093 4872 l-33 -3 0 -95 c0 -56 4 -94 10 -94 6 0 10 13 10 29 0 28
2 29 33 24 44 -7 67 16 67 66 0 59 -25 80 -87 73z m55 -24 c16 -16 15 -70 -2
-93 -12 -17 -18 -18 -40 -7 -21 9 -26 18 -26 50 0 40 14 62 40 62 9 0 21 -5
28 -12z"/>
<path d="M10266 4848 c-19 -27 -21 -78 -3 -101 14 -20 54 -30 62 -16 10 16 25
10 25 -10 0 -31 -26 -46 -57 -32 -28 13 -46 6 -23 -9 19 -12 61 -12 80 0 19
12 29 190 11 190 -6 0 -11 -5 -11 -10 0 -7 -6 -7 -19 0 -30 16 -48 12 -65 -12z
m76 -23 c23 -51 -20 -106 -57 -75 -17 14 -19 53 -5 81 15 27 48 24 62 -6z"/>
<path d="M11466 4844 c-21 -21 -6 -49 31 -59 37 -9 53 -23 46 -41 -6 -17 -54
-19 -71 -2 -6 6 -14 9 -18 6 -3 -4 6 -14 20 -23 38 -25 81 -9 81 31 0 24 -6
31 -35 40 -19 7 -37 19 -39 29 -3 15 3 17 38 12 40 -5 56 5 25 17 -28 11 -62
6 -78 -10z"/>
<path d="M820 4795 c0 -8 9 -15 20 -15 11 0 20 7 20 15 0 8 -9 15 -20 15 -11
0 -20 -7 -20 -15z"/>
<path d="M1911 4641 c-11 -7 -12 -34 -7 -135 4 -69 9 -132 11 -139 2 -6 6 -60
9 -119 5 -88 4 -108 -8 -108 -7 0 -19 7 -27 16 -21 25 -70 47 -81 36 -15 -15
112 -163 134 -156 10 3 18 0 18 -6 0 -6 10 -10 21 -8 19 3 22 10 23 63 2 45 9
73 30 112 26 47 28 73 6 73 -5 0 -19 -20 -31 -45 -12 -25 -25 -45 -29 -45 -7
0 -30 196 -37 316 -6 92 1 103 50 83 30 -12 177 -92 276 -152 25 -15 91 -50
146 -78 55 -28 107 -54 115 -59 8 -4 55 -26 103 -49 48 -23 85 -45 83 -50 -3
-5 -32 -11 -63 -15 -32 -4 -64 -10 -71 -15 -20 -12 -3 -42 22 -36 11 2 59 7
107 10 106 8 114 17 87 95 -10 30 -19 67 -20 81 -1 30 -35 56 -51 40 -7 -7 -5
-27 8 -66 9 -31 15 -58 12 -61 -3 -3 -27 11 -55 30 -27 20 -56 36 -63 36 -26
0 -300 140 -294 150 3 6 -3 10 -14 10 -21 0 -112 45 -189 94 -32 20 -200 107
-206 106 -1 0 -7 -4 -15 -9z"/>
<path d="M4284 4553 c-3 -36 -2 -123 5 -192 6 -69 11 -147 11 -173 l0 -48 -47
30 c-55 35 -63 36 -63 12 0 -34 156 -149 176 -129 3 2 7 40 10 83 3 43 10 84
16 91 11 14 4 43 -10 43 -5 0 -14 -19 -21 -41 -23 -75 -34 -30 -38 156 -6 202
-8 198 83 140 30 -19 59 -35 64 -35 6 0 10 -4 10 -10 0 -5 11 -10 24 -10 16 0
27 -7 31 -20 3 -11 15 -20 26 -20 11 0 41 -15 68 -33 26 -18 63 -39 82 -46
105 -40 209 -91 209 -102 0 -5 6 -6 14 -3 18 7 209 -87 199 -97 -5 -4 -38 -9
-75 -11 -37 -2 -70 -7 -74 -11 -37 -36 188 -41 258 -6 42 22 56 42 41 62 -15
18 -43 107 -43 133 0 27 -17 41 -32 26 -8 -8 -8 -34 0 -89 6 -43 9 -79 7 -82
-2 -2 -26 7 -52 19 -26 12 -84 38 -128 57 -44 19 -93 41 -110 48 -16 7 -83 36
-148 65 -65 28 -147 69 -182 90 -35 22 -85 51 -112 65 -26 14 -75 44 -108 65
-33 21 -65 39 -72 39 -7 1 -14 -25 -19 -66z"/>
<path d="M3070 4461 c0 -82 5 -184 11 -226 6 -42 8 -80 4 -83 -3 -4 -38 10
-77 31 -69 35 -95 37 -83 6 3 -8 20 -23 38 -33 18 -11 55 -33 82 -51 34 -22
61 -32 84 -31 35 1 35 1 54 76 10 41 23 80 29 87 10 13 3 33 -12 33 -6 0 -22
-24 -37 -52 l-27 -53 -7 36 c-12 56 -26 230 -18 234 3 3 3 23 -1 45 -7 37 -3
90 6 90 2 0 75 -36 161 -80 87 -44 163 -80 169 -80 21 0 258 -92 275 -106 9
-8 18 -12 21 -9 6 6 208 -71 222 -85 5 -5 -12 -18 -47 -34 -31 -15 -59 -26
-64 -26 -4 0 -19 -9 -33 -20 -47 -36 3 -36 114 0 124 40 146 50 146 68 0 21
-101 162 -116 162 -16 0 -19 -26 -4 -35 13 -8 43 -65 37 -71 -2 -2 -46 11 -98
30 -52 19 -138 51 -193 71 -54 19 -122 46 -150 59 -28 13 -68 27 -90 31 -33 5
-272 118 -286 134 -14 16 -53 31 -80 31 l-30 0 0 -149z"/>
<path d="M7894 4599 c-3 -6 -7 -105 -8 -220 -1 -115 -5 -212 -9 -215 -7 -8
-77 36 -77 49 0 4 -9 7 -20 7 -36 0 -21 -33 39 -84 69 -60 109 -76 126 -52 7
9 18 44 24 79 7 34 17 70 22 79 14 27 11 50 -7 46 -9 -2 -23 -23 -31 -48 -25
-74 -33 -70 -34 16 -1 171 4 290 13 300 2 2 31 -15 63 -36 33 -22 88 -52 123
-66 34 -15 62 -30 62 -34 0 -4 15 -10 33 -13 18 -3 53 -14 78 -25 24 -11 62
-26 84 -32 41 -12 102 -40 290 -130 103 -50 108 -54 80 -60 -16 -4 -47 -8 -67
-9 -30 -1 -38 -5 -38 -20 0 -26 36 -33 117 -21 86 12 133 28 133 46 0 28 -42
126 -57 131 -22 9 -32 -16 -21 -48 5 -16 8 -33 6 -38 -1 -5 -34 5 -73 24 -38
18 -113 53 -165 78 -52 25 -114 50 -137 57 -24 7 -43 17 -43 22 0 4 -7 8 -15
8 -8 0 -23 4 -33 9 -9 4 -44 17 -77 28 -114 39 -220 89 -285 136 -66 48 -84
55 -96 36z"/>
<path d="M9113 4597 c-4 -7 -7 -86 -6 -176 l2 -164 -33 32 c-30 29 -76 42 -76
21 0 -10 79 -102 126 -147 32 -32 54 -30 54 5 0 25 22 102 45 155 13 32 -23
19 -41 -14 -12 -24 -18 -29 -25 -18 -10 18 -11 246 0 253 4 3 17 -2 27 -12 36
-33 104 -72 159 -93 30 -11 57 -25 60 -30 4 -5 18 -9 32 -9 14 0 51 -13 82
-29 31 -16 90 -44 131 -64 41 -19 116 -54 165 -78 l90 -43 -50 -5 c-35 -4 -50
-10 -50 -21 0 -12 19 -17 82 -22 46 -4 87 -9 92 -12 19 -12 61 16 61 40 0 30
-70 172 -87 179 -24 9 -26 -24 -4 -70 35 -75 30 -80 -46 -42 -38 19 -94 44
-125 57 -32 13 -58 28 -58 32 0 5 -4 7 -9 3 -6 -3 -49 14 -98 39 -109 54 -135
66 -248 108 -53 20 -115 53 -150 79 -70 53 -91 63 -102 46z"/>
<path d="M5474 4499 c3 -52 10 -128 15 -169 15 -119 17 -255 3 -253 -6 2 -32
19 -58 38 -49 37 -59 41 -69 24 -9 -14 74 -93 124 -119 53 -26 60 -40 21 -40
-17 0 -47 -7 -67 -15 -34 -14 -35 -17 -30 -53 6 -35 17 -48 63 -79 19 -13 19
-13 0 -25 -76 -52 -84 -77 -36 -123 23 -22 41 -29 83 -33 46 -4 57 -1 83 21
34 29 58 93 48 132 -5 22 -3 25 19 25 13 0 38 3 54 6 29 6 30 5 31 -35 2 -51
34 -119 71 -155 41 -40 122 -57 179 -38 84 28 139 130 141 263 1 52 -28 147
-39 129 -5 -8 -9 -5 -12 8 -7 25 -77 62 -118 62 -68 0 -153 -59 -184 -128 -21
-46 -49 -62 -123 -69 l-51 -6 -13 42 c-7 22 -16 41 -22 41 -5 0 -6 10 -3 23 4
12 9 54 12 92 3 39 12 84 21 102 14 31 11 53 -7 53 -5 0 -19 -34 -31 -75 -12
-41 -25 -72 -29 -70 -4 2 -10 55 -15 117 -11 165 -16 237 -22 296 -3 28 -2 52
2 52 7 0 156 -101 165 -111 3 -4 15 -9 27 -13 12 -4 66 -31 120 -60 54 -30
116 -59 138 -66 42 -12 148 -59 200 -87 17 -8 61 -31 98 -50 37 -18 65 -37 63
-42 -3 -5 -26 -12 -51 -16 -36 -5 -45 -10 -43 -23 3 -15 17 -17 98 -17 83 0
99 3 128 23 27 19 30 26 22 42 -6 11 -15 43 -20 72 -12 59 -35 93 -45 66 -4
-9 -2 -42 4 -74 6 -31 8 -60 5 -63 -3 -3 -82 34 -177 81 -95 48 -206 98 -247
113 -69 24 -208 89 -220 104 -3 3 -22 14 -44 24 -21 10 -79 45 -128 78 -50 32
-101 62 -115 65 l-24 6 5 -93z m563 -494 c12 -14 28 -24 35 -23 7 2 19 -18 29
-45 18 -56 11 -120 -23 -199 -31 -72 -59 -93 -124 -92 -65 0 -99 22 -131 85
-28 55 -29 113 -3 162 11 20 20 43 20 50 0 7 12 25 28 39 66 62 127 70 169 23z
m-474 -88 c9 -57 -49 -77 -99 -34 -34 29 -27 53 18 65 53 13 75 5 81 -31z m48
-114 c6 -92 -30 -130 -106 -113 -47 11 -58 21 -50 51 4 18 23 32 63 51 67 32
92 34 93 11z"/>
<path d="M5919 3967 c-9 -7 -23 -26 -32 -43 -42 -81 -8 -204 57 -204 59 0 126
51 94 72 -18 11 -28 10 -28 -2 0 -13 -61 -40 -73 -33 -4 2 -14 21 -23 41 -12
31 -13 44 -3 79 20 71 79 100 79 38 0 -37 34 -30 38 7 3 21 -3 30 -27 42 -36
19 -60 20 -82 3z"/>
<path d="M6675 4580 c-7 -12 3 -236 16 -315 5 -33 9 -77 9 -98 0 -35 -2 -38
-22 -32 -13 4 -32 16 -44 26 -11 11 -30 19 -42 19 -22 0 -22 -1 -7 -30 29 -55
79 -97 126 -103 49 -6 49 -7 87 83 13 30 30 62 38 71 18 20 18 39 0 39 -8 0
-27 -24 -43 -52 -15 -29 -32 -53 -38 -53 -18 0 -47 231 -43 334 l3 70 50 -23
c163 -78 211 -98 310 -131 101 -33 225 -78 300 -110 17 -7 51 -20 78 -30 26
-10 47 -21 47 -25 0 -4 -25 -13 -55 -20 -60 -14 -74 -25 -56 -43 25 -25 251
34 251 67 0 7 -9 31 -20 54 -11 22 -20 45 -20 50 0 5 -9 17 -19 26 -27 25 -36
4 -21 -50 7 -25 10 -47 7 -50 -6 -7 -120 34 -202 71 -27 13 -62 26 -76 29 -14
3 -52 18 -85 33 -32 15 -63 28 -69 28 -72 10 -188 52 -354 131 -106 50 -98 47
-106 34z"/>
<path d="M3725 4440 c-3 -5 -1 -10 4 -10 6 0 11 5 11 10 0 6 -2 10 -4 10 -3 0
-8 -4 -11 -10z"/>
<path d="M6115 4420 c4 -6 11 -8 16 -5 14 9 11 15 -7 15 -8 0 -12 -5 -9 -10z"/>
<path d="M9653 4193 c-18 -2 -33 -9 -33 -15 0 -5 7 -7 16 -4 9 3 32 6 52 6 28
0 33 3 22 10 -8 5 -17 9 -20 8 -3 -1 -20 -3 -37 -5z"/>
<path d="M580 4040 l0 -90 68 0 c55 0 72 4 86 19 20 22 14 61 -10 61 -18 0
-18 5 3 37 16 25 16 26 -6 44 -17 14 -39 19 -82 19 l-59 0 0 -90z m117 47 c8
-14 -25 -37 -54 -37 -17 0 -23 6 -23 23 0 13 2 26 5 29 8 8 65 -4 72 -15z m-3
-63 c38 -15 3 -54 -48 -54 -22 0 -26 4 -26 30 0 26 3 30 29 30 16 0 36 -3 45
-6z"/>
<path d="M780 4096 c0 -28 3 -34 16 -29 18 7 16 54 -3 61 -9 2 -13 -8 -13 -32z"/>
<path d="M7083 4064 c-57 -37 -93 -113 -100 -208 -6 -93 10 -140 64 -178 74
-54 148 -38 213 46 22 28 44 56 48 61 14 17 24 65 29 135 4 64 3 66 -35 108
-22 23 -49 42 -60 42 -12 0 -23 4 -26 8 -3 5 -24 9 -48 10 -32 2 -53 -4 -85
-24z m140 -36 c9 -11 17 -29 17 -39 0 -23 16 -25 28 -3 8 14 10 14 22 0 36
-45 -9 -190 -80 -258 -32 -31 -47 -38 -78 -38 -42 0 -92 30 -92 56 0 19 7 18
37 -6 35 -28 79 -25 121 6 33 25 62 76 62 108 0 9 -14 31 -31 50 -17 20 -28
40 -24 46 12 19 -6 49 -33 55 -22 4 -100 -16 -103 -28 0 -1 -3 -42 -5 -92 -5
-85 -15 -111 -37 -98 -17 10 0 147 22 191 38 75 129 101 174 50z m-56 -64 c4
-10 0 -20 -10 -26 -28 -15 -20 -38 12 -38 34 0 61 -23 61 -51 0 -10 -16 -37
-36 -59 -27 -30 -44 -40 -66 -40 l-30 0 4 101 c2 86 6 103 22 115 26 18 35 18
43 -2z"/>
<path d="M9035 4080 c-34 -14 -65 -50 -65 -76 0 -14 15 -40 34 -62 33 -36 37
-37 100 -37 55 0 66 -2 66 -16 0 -12 -12 -18 -41 -22 -78 -10 -114 -80 -73
-142 20 -31 69 -33 124 -5 48 25 53 33 52 86 0 45 6 51 58 60 53 10 90 26 90
40 0 17 -19 17 -90 1 -70 -17 -80 -13 -80 28 0 43 -9 65 -26 65 -8 0 -17 7
-21 15 -6 16 -86 75 -100 74 -4 0 -17 -4 -28 -9z m75 -45 c20 -10 32 -27 39
-53 15 -50 15 -50 -18 -57 -68 -15 -166 68 -131 110 16 19 73 19 110 0z m82
-212 c7 -31 -4 -53 -33 -68 -36 -19 -53 -19 -69 0 -20 24 -4 61 32 72 49 16
66 15 70 -4z"/>
<path d="M860 4060 c0 -11 7 -20 15 -20 8 0 15 9 15 20 0 11 -7 20 -15 20 -8
0 -15 -9 -15 -20z"/>
<path d="M11392 4048 c-28 -45 -30 -129 -4 -178 11 -18 24 -36 31 -38 7 -2 4
12 -8 34 -26 48 -28 139 -5 172 8 12 14 28 12 34 -2 6 -14 -4 -26 -24z"/>
<path d="M11600 4065 c0 -3 7 -19 15 -35 21 -40 21 -119 1 -159 -22 -41 -14
-53 10 -16 25 38 31 133 10 173 -15 29 -36 51 -36 37z"/>
<path d="M4235 4029 c-36 -29 -28 -70 20 -112 l36 -30 -29 -31 c-30 -31 -46
-83 -36 -111 3 -8 21 -24 39 -35 l33 -21 58 20 c93 33 102 46 78 127 -5 20 0
23 55 32 58 11 103 33 130 66 20 24 -8 31 -38 8 -31 -23 -131 -48 -155 -39 -9
4 -16 18 -16 34 0 38 -22 67 -70 92 -51 26 -70 26 -105 0z m125 -69 c0 -38 -2
-40 -30 -40 -18 0 -42 11 -61 28 -27 24 -30 31 -20 49 14 27 48 33 84 16 23
-11 27 -20 27 -53z m39 -137 c15 -52 16 -50 -36 -73 -54 -24 -81 -23 -97 2
-17 28 21 91 51 85 13 -2 28 2 34 9 20 24 38 15 48 -23z"/>
<path d="M2970 4029 c-46 -19 -51 -45 -16 -86 21 -24 31 -27 92 -29 87 -2 97
-21 25 -47 -44 -15 -111 -69 -111 -88 0 -20 45 -81 69 -94 24 -12 32 -11 67 4
52 24 64 40 71 100 5 48 8 52 47 70 45 19 60 34 70 69 9 28 -8 29 -37 1 -27
-26 -68 -42 -78 -32 -4 4 -10 26 -13 47 -7 46 -21 66 -46 66 -10 0 -20 4 -22
10 -5 15 -89 21 -118 9z m108 -35 c32 -22 27 -41 -13 -47 -46 -8 -95 10 -95
33 0 10 6 21 13 23 26 11 73 6 95 -9z m52 -178 c0 -31 -18 -78 -33 -88 -32
-20 -87 6 -87 42 0 22 30 49 66 60 46 13 54 11 54 -14z"/>
<path d="M7775 4005 c-31 -30 -31 -34 -2 -75 25 -38 63 -68 92 -73 11 -2 33
-9 48 -15 16 -7 33 -12 38 -12 6 0 9 -6 7 -12 -3 -7 -26 -18 -53 -25 -42 -11
-55 -10 -104 8 -31 11 -64 22 -73 24 -21 4 -24 -20 -5 -32 32 -20 125 -53 152
-53 49 0 122 31 136 58 12 22 11 26 -10 43 -12 10 -53 28 -89 39 -65 19 -122
58 -122 83 0 44 78 51 109 11 12 -15 21 -32 21 -39 0 -14 47 -15 68 -2 20 13
14 20 -38 52 -28 16 -50 33 -50 37 0 4 -23 8 -50 8 -41 0 -56 -5 -75 -25z"/>
<path d="M11482 4019 c-35 -13 -26 -51 16 -65 39 -12 57 -28 48 -43 -9 -15
-59 -14 -74 1 -7 7 -12 8 -12 2 0 -36 66 -46 96 -13 24 27 9 51 -39 63 -27 7
-37 15 -37 29 0 17 5 19 43 13 26 -4 38 -4 32 2 -17 16 -49 21 -73 11z"/>
<path d="M6620 4007 c-14 -7 -26 -23 -28 -35 -4 -27 41 -92 64 -92 22 0 17
-10 -21 -47 -19 -19 -35 -44 -35 -56 0 -38 35 -84 70 -90 38 -8 68 6 105 51
22 26 26 40 22 67 -5 33 -4 35 46 59 53 25 117 78 117 96 0 18 -38 11 -53 -10
-18 -26 -83 -60 -114 -60 -18 0 -23 6 -24 25 -1 14 -2 29 -3 34 -2 17 -79 71
-100 71 -11 0 -32 -6 -46 -13z m90 -36 c22 -42 -1 -67 -49 -54 -22 6 -46 46
-37 62 12 19 74 13 86 -8z m44 -137 c10 -27 7 -45 -15 -76 -17 -23 -27 -28
-52 -26 -44 4 -57 30 -31 65 35 47 87 66 98 37z"/>
<path d="M1873 3990 c-77 -47 -23 -104 151 -160 92 -30 86 -54 -22 -88 -42
-14 -115 11 -133 45 -13 24 -33 30 -44 12 -18 -28 96 -99 156 -99 42 1 104 23
130 46 26 24 25 68 -3 86 -13 8 -48 23 -78 33 -109 35 -169 77 -139 96 23 15
55 10 73 -10 10 -11 16 -23 13 -28 -3 -4 1 -13 8 -20 10 -10 16 -9 25 2 20 24
8 67 -25 86 -40 23 -73 23 -112 -1z"/>
<path d="M10237 3982 c-32 -34 -34 -60 -6 -96 31 -39 51 -47 94 -35 29 8 40 8
46 -3 14 -21 11 -24 -39 -37 -59 -15 -112 -60 -112 -95 0 -31 47 -66 90 -66
60 0 130 56 130 105 0 16 11 27 41 40 45 21 99 79 99 107 0 27 -27 21 -42 -9
-15 -30 -72 -73 -98 -73 -12 0 -24 19 -40 62 -26 71 -75 128 -112 128 -14 0
-36 -12 -51 -28z m73 -12 c20 -11 33 -50 24 -74 -8 -21 -53 -20 -76 1 -23 21
-23 59 0 72 22 13 29 13 52 1z m90 -209 c0 -29 -47 -61 -90 -61 -44 0 -53 7
-39 31 12 23 63 47 102 48 20 1 27 -4 27 -18z"/>
<path d="M860 3965 c0 -8 7 -15 15 -15 8 0 15 7 15 15 0 8 -7 15 -15 15 -8 0
-15 -7 -15 -15z"/>
<path d="M4954 3455 c-9 -36 33 -153 77 -212 66 -89 127 -99 313 -54 101 25
159 17 197 -28 l26 -31 37 29 c45 36 81 42 241 39 164 -3 218 23 256 123 18
48 19 54 4 68 -14 14 -17 14 -25 1 -6 -8 -15 -33 -22 -55 -16 -56 -34 -73 -92
-90 -40 -12 -79 -14 -176 -9 -119 6 -127 5 -172 -19 l-48 -24 -32 20 c-50 30
-138 33 -228 8 -83 -23 -164 -27 -196 -8 -49 28 -95 112 -124 225 -12 47 -27
54 -36 17z"/>
<path d="M5484 3013 c-22 -24 -25 -35 -21 -76 5 -54 10 -62 33 -53 13 5 15 14
10 41 -4 20 -2 44 5 56 9 18 17 21 51 16 23 -3 48 -12 56 -21 14 -14 13 -22
-12 -83 -42 -106 -57 -172 -44 -197 32 -63 74 -72 131 -28 62 47 88 122 44
130 -13 3 -17 -3 -17 -26 0 -40 -54 -94 -90 -90 -24 3 -25 6 -23 68 1 47 8 81
27 120 42 89 33 127 -34 154 -58 23 -87 20 -116 -11z"/>
<path d="M7178 2865 c-1 -1 -21 -5 -43 -7 -103 -12 -205 -126 -206 -231 -1
-56 18 -134 41 -172 88 -142 273 -166 385 -51 44 46 59 101 52 196 -7 103 -36
167 -92 205 -24 16 -42 32 -39 36 6 10 -87 34 -98 24z m104 -57 c58 -39 72
-68 89 -178 19 -120 -5 -187 -84 -237 -86 -55 -211 -30 -270 53 -49 69 -73
206 -44 257 23 41 112 123 147 134 53 18 107 8 162 -29z"/>
<path d="M7113 2742 c-13 -8 -22 -49 -43 -183 -16 -98 -13 -108 35 -125 56
-19 102 -17 141 6 55 34 55 98 1 149 -20 18 -25 30 -20 51 12 61 -67 132 -114
102z m53 -20 c17 -11 34 -48 34 -76 0 -18 -9 -30 -30 -41 -39 -20 -29 -39 17
-30 47 8 73 -15 73 -65 0 -30 -5 -39 -25 -48 -29 -13 -67 -15 -114 -6 -36 8
-37 14 -16 117 12 61 21 115 24 150 1 9 23 9 37 -1z"/>
<path d="M5574 2516 c-11 -28 1 -61 22 -64 31 -4 50 23 36 53 -13 27 -49 34
-58 11z"/>
<path d="M4967 2300 c-63 -24 -112 -63 -140 -108 -26 -41 -47 -107 -47 -143 0
-34 53 -122 87 -144 59 -39 184 -37 243 5 45 32 103 137 108 196 5 63 -13 125
-34 117 -10 -3 -12 0 -9 10 4 8 -1 17 -10 21 -11 4 -14 2 -10 -7 4 -6 -2 -2
-12 10 -17 19 -101 64 -120 63 -4 -1 -30 -9 -56 -20z m109 -45 c6 -8 20 -15
32 -15 23 0 69 -50 78 -86 10 -41 -6 -94 -48 -155 -51 -75 -88 -93 -175 -84
-95 10 -134 58 -134 163 0 60 30 115 86 157 60 45 135 54 161 20z"/>
<path d="M4940 2089 c0 -46 19 -68 58 -69 28 0 43 35 30 70 -11 31 -25 40 -60
40 -26 0 -28 -3 -28 -41z m65 21 c7 -12 -2 -12 -30 0 -19 8 -19 9 2 9 12 1 25
-3 28 -9z"/>
<path d="M7068 2253 c-92 -58 -41 -203 54 -152 25 14 31 8 22 -25 -6 -25 -9
-26 -49 -20 -76 11 -145 -49 -129 -112 19 -75 152 -46 188 41 10 23 24 36 50
45 40 13 86 62 86 91 0 28 -9 24 -47 -21 -53 -61 -62 -54 -56 39 5 75 4 80
-20 105 -30 30 -61 33 -99 9z m80 -54 c3 -30 -2 -41 -24 -58 -27 -21 -74 -29
-74 -12 0 5 -3 22 -6 39 -6 27 -2 33 27 52 49 30 73 23 77 -21z m-26 -194 c-4
-27 -69 -82 -96 -81 -32 2 -35 57 -4 86 31 29 105 26 100 -5z"/>
<path d="M5309 2114 c-5 -15 -10 -95 -10 -178 l-1 -151 -121 1 c-67 1 -206 5
-309 9 -125 5 -188 4 -188 -2 0 -26 32 -33 146 -34 66 0 133 -1 149 -3 17 -2
96 -4 176 -5 l147 -1 6 -92 c3 -51 8 -208 12 -348 3 -140 8 -257 9 -260 2 -3
5 -207 6 -454 2 -364 6 -449 16 -453 8 -3 16 -4 18 -2 4 5 -14 1065 -23 1364
-4 121 -6 226 -3 234 3 11 62 12 350 6 190 -3 612 -8 936 -10 325 -2 598 -6
607 -10 23 -9 43 28 23 45 -10 9 -19 9 -35 0 -20 -11 -611 -10 -1680 3 l-205
2 2 183 c2 178 -5 215 -28 156z"/>
<path d="M7027 1679 c-12 -19 -13 -39 -7 -99 14 -133 20 -280 12 -280 -5 0
-28 20 -51 45 -26 27 -47 42 -56 39 -8 -4 -15 -9 -15 -13 0 -10 45 -70 67 -90
103 -91 104 -92 119 -81 16 14 44 68 44 87 0 7 4 13 9 13 5 0 12 11 15 25 3
13 17 41 31 61 14 20 25 50 25 66 0 35 -4 32 -74 -62 -26 -36 -51 -65 -55 -65
-7 0 -18 91 -27 240 -8 128 -14 149 -37 114z"/>
<path d="M4323 1299 c-18 -12 -33 -27 -33 -35 0 -8 -8 -14 -18 -14 -30 0 -73
-102 -79 -186 -10 -128 4 -158 97 -210 74 -42 216 -30 286 25 55 43 69 71 73
148 3 67 0 79 -33 147 -32 66 -65 106 -89 106 -4 0 3 -15 16 -32 53 -70 77
-134 77 -201 0 -105 -31 -146 -140 -180 -70 -22 -118 -24 -158 -8 -26 11 -32
19 -32 45 0 17 8 53 17 79 l17 48 51 -6 c58 -8 58 -7 75 -62 7 -24 19 -43 27
-43 17 0 17 18 -1 53 -8 15 -11 27 -5 27 14 0 11 27 -5 33 -8 3 -21 43 -32
101 -10 53 -21 96 -24 96 -16 0 -52 -50 -46 -65 3 -9 2 -14 -2 -11 -5 3 -18
-17 -30 -44 -12 -27 -29 -53 -39 -59 -14 -8 -15 -13 -5 -19 10 -7 8 -21 -9
-66 -20 -52 -24 -56 -38 -41 -26 26 -21 187 6 245 27 56 50 83 90 104 41 21
119 18 140 -6 21 -23 33 -23 33 0 0 25 -60 52 -113 52 -25 0 -55 -9 -74 -21z
m86 -195 c9 -37 9 -49 0 -55 -10 -6 -44 3 -67 17 -2 1 7 22 19 47 13 25 26 44
30 42 3 -3 12 -26 18 -51z"/>
<path d="M7515 1192 c-38 -9 -98 -41 -108 -58 -4 -8 -14 -14 -21 -14 -17 0
-56 -46 -56 -68 0 -14 -2 -14 -9 -3 -7 11 -12 3 -21 -30 -41 -150 77 -319 223
-319 43 0 106 37 170 99 96 93 104 124 62 238 -28 72 -69 125 -94 121 -9 -2
-15 3 -13 10 1 6 -1 12 -5 13 -5 0 -17 2 -28 4 -11 2 -31 6 -45 9 -14 2 -38 1
-55 -2z m92 -43 c30 -11 83 -57 83 -72 0 -4 7 -15 15 -23 8 -9 15 -24 15 -33
0 -10 7 -24 15 -31 36 -30 12 -90 -67 -166 -66 -65 -104 -84 -164 -84 -93 0
-157 73 -169 195 -6 57 -5 62 24 95 17 19 31 38 31 42 0 13 69 60 107 74 47
16 73 17 110 3z"/>
<path d="M7468 1064 c-31 -16 -63 -72 -72 -124 -8 -45 21 -94 68 -117 30 -14
42 -14 95 -3 35 7 62 19 66 28 9 23 0 26 -49 13 -72 -18 -102 -14 -125 15 -24
30 -25 44 -10 97 12 43 48 72 79 62 20 -6 21 -12 15 -56 -6 -40 -4 -49 8 -49
20 0 33 19 41 56 6 28 3 35 -31 63 -43 35 -47 36 -85 15z"/>
<path d="M6964 1156 c-61 -28 -164 -118 -182 -158 -13 -31 -33 -36 -52 -13 -7
8 -18 15 -24 15 -7 0 -23 11 -36 25 -25 26 -60 34 -60 12 0 -7 25 -32 55 -56
30 -24 55 -45 55 -47 0 -1 -228 0 -507 3 -487 5 -583 2 -712 -25 -19 -4 -36
-13 -39 -21 -4 -11 12 -12 84 -8 49 3 107 10 129 16 47 12 1006 8 1025 -4 9
-5 -4 -22 -41 -56 -42 -37 -51 -50 -42 -60 9 -9 22 -3 59 30 40 35 64 49 64
39 0 -2 4 -29 10 -60 10 -67 50 -130 110 -178 40 -32 44 -32 116 -28 66 4 81
9 130 43 56 39 91 82 133 165 21 40 23 54 18 125 -12 153 -42 200 -153 243
-74 27 -77 27 -140 -2z m139 -40 c55 -23 97 -70 97 -108 0 -18 7 -46 15 -62 8
-15 15 -44 15 -64 0 -47 -56 -156 -104 -203 -42 -41 -66 -43 -40 -4 12 18 15
46 13 115 -2 78 0 93 14 102 9 5 17 18 17 28 0 22 -10 26 -27 9 -9 -9 -12 1
-11 41 1 47 -2 55 -32 81 -34 30 -96 42 -87 17 2 -7 12 -12 22 -10 24 5 55
-27 55 -56 0 -47 -66 -93 -86 -61 -3 6 -6 34 -5 61 1 61 -23 63 -26 2 -4 -83
38 -124 91 -89 24 16 26 16 26 1 0 -9 -14 -28 -32 -43 -57 -50 -108 -108 -97
-112 6 -2 38 23 70 55 73 72 83 67 77 -40 -4 -83 -27 -128 -67 -134 -27 -4
-57 20 -65 54 -4 13 -11 24 -16 24 -6 0 -8 -11 -4 -27 8 -32 50 -72 79 -74 14
-1 11 -4 -10 -9 -16 -4 -37 -8 -46 -9 -25 -2 -103 65 -128 109 -28 50 -39 137
-20 171 7 13 15 35 16 49 4 30 33 101 48 115 26 25 99 66 133 74 55 13 79 13
115 -3z"/>
<path d="M4898 1160 c-61 -18 -86 -41 -93 -87 -3 -23 -3 -48 1 -55 4 -7 3 -8
-4 -4 -8 5 -12 -2 -12 -18 0 -14 5 -26 11 -26 5 0 7 -5 4 -10 -4 -6 -11 -8
-16 -4 -6 3 -10 -9 -9 -28 0 -18 -7 -82 -16 -143 -22 -147 -22 -160 -4 -160
16 0 20 18 43 210 l12 100 55 1 c97 1 108 4 137 28 34 29 54 82 42 114 -10 26
-34 52 -71 75 -30 18 -39 19 -80 7z m94 -57 c15 -15 28 -35 28 -46 0 -32 -32
-76 -63 -87 -35 -12 -107 -13 -124 -2 -19 12 5 113 34 140 35 32 89 30 125 -5z"/>
</g>
</svg>
